<?xml version="1.0" encoding="utf-8"?>
<!-- Generator: Adobe Illustrator 23.1.1, SVG Export Plug-In . SVG Version: 6.00 Build 0)  -->
<svg version="1.1" id="Lager_1" xmlns="http://www.w3.org/2000/svg" xmlns:xlink="http://www.w3.org/1999/xlink" x="0px" y="0px"
	 viewBox="0 0 253.7 56" style="enable-background:new 0 0 253.7 56;" xml:space="preserve">
<style type="text/css">
	.st0{fill:#FFFFFF;}
</style>
<g>
	<path class="st0" d="M19.4,32.5v-4l18.8-10.8V23l-13,7.5l13,7.4v5.2L19.4,32.5z"/>
	<path class="st0" d="M69.6,30.5c0,7-5.7,12.7-12.7,12.7H44.2V7.4h12.7c7,0,12.7,5.7,12.7,12.7V30.5z M65,20.1
		c0-4.5-3.6-8.2-8.2-8.2h-8.1v26.8h8.1c4.5,0,8.2-3.7,8.2-8.2V20.1z"/>
	<path class="st0" d="M94.8,32.8H76.6c0.5,3.4,3.4,5.9,6.8,5.9c2.1,0,4-1,5.4-2.6l3.6,2.9c-2.2,2.7-5.5,4.3-8.9,4.3
		c-6.3,0-11.4-5.1-11.4-11.4v-2.6c0-6.3,5.1-11.4,11.4-11.4c6.3,0,11.4,5.1,11.4,11.4V32.8z M83.4,22.4c-3.4,0-6.3,2.5-6.8,5.9h13.6
		C89.6,24.9,86.7,22.4,83.4,22.4z"/>
	<path class="st0" d="M111.2,43.2h-5L95,17.8h5l8.7,19.8l8.7-19.8h5L111.2,43.2z"/>
	<path class="st0" d="M141.2,43.2h-5.7c-4.4,0-8-2.9-9.3-6.8l4.3-1.5c0.8,2.2,2.8,3.7,5,3.7h5.7c2.9,0,5.3-2.4,5.3-5.6
		c0-2.9-1.9-4.1-4.6-4.8c-2.1-0.6-4.5-0.9-7-1.4c-4.8-1-9.2-2.8-9.2-9.4c0-5.5,4.3-10.1,9.9-10.1h5.7c4.3,0,8,2.9,9.3,6.7l-4.3,1.5
		c-0.7-2.2-2.7-3.7-5-3.7h-5.7c-2.9,0-5.3,2.4-5.3,5.6c0,2.9,1.9,4.1,4.6,4.8c2.1,0.6,4.5,0.9,7,1.4c4.8,1,9.2,2.8,9.2,9.4
		C151.1,38.6,146.7,43.2,141.2,43.2z"/>
	<path class="st0" d="M172.6,43.2v-2.3c-1.9,1.5-4.4,2.3-6.8,2.3c-6.3,0-11.4-5.1-11.4-11.4v-14h4.6v14c0,3.8,3.1,6.9,6.8,6.9
		s6.8-3.1,6.8-6.9v-14h4.6v25.4H172.6z"/>
	<path class="st0" d="M206.4,43.2V25.9c0-2.3-1.8-3.6-4-3.6c-2,0-3.6,1.6-3.6,3.6v17.3h-4.6V25.9c0-2.3-1.8-3.6-4-3.6
		c-2,0-3.6,1.6-3.6,3.6v17.3h-4.6V17.8h4.6v0.9c1.3-0.7,2.5-0.9,4-0.9c2.2,0,4.3,0.9,5.9,2.5c1.7-1.8,3.8-2.5,6.3-2.5
		c4.5,0,8.2,3.7,8.2,8.2v17.3H206.4z"/>
	<path class="st0" d="M217.1,43.2V38l13-7.4l-13-7.5v-5.2l18.8,10.8v4L217.1,43.2z"/>
</g>
</svg>
